<svg width="1069" height="174" viewBox="0 0 1069 174" fill="none" xmlns="http://www.w3.org/2000/svg">
<g clip-path="url(#clip0)" filter="url(#filter0_d)">
<path d="M250.256 65.616C251.562 65.8464 252.214 67.2672 252.214 69.8784C252.214 72.4896 249.526 76.0608 244.15 80.592C238.851 85.0464 233.706 87.504 228.714 87.9648C233.014 90.1152 236.97 93.4944 240.579 98.1024C244.189 102.71 245.994 106.589 245.994 109.738C245.994 111.734 245.533 112.925 244.611 113.309L244.035 113.424C244.035 108.586 241.078 103.478 235.165 98.1024C229.328 92.7264 222.877 90.0384 215.811 90.0384C215.811 89.424 216.234 88.7712 217.078 88.08C218.614 86.8512 220.266 86.2368 222.032 86.2368C229.021 86.2368 235.472 83.856 241.386 79.0944C247.299 74.256 250.256 69.7632 250.256 65.616ZM310.83 49.3728C308.602 57.4368 306.836 64.1568 305.53 69.5328C304.302 74.832 302.919 81.0144 301.383 88.08C299.924 95.0688 299.194 100.675 299.194 104.899C299.194 109.123 300.154 111.235 302.074 111.235C304.148 111.235 306.99 108.586 310.599 103.286C314.286 97.9872 317.434 92.688 320.046 87.3888L323.847 79.44H326.958C326.497 80.3616 325.882 81.6288 325.114 83.2416C324.423 84.7776 323.002 87.5808 320.852 91.6512C318.702 95.6448 316.628 99.1776 314.631 102.25C312.711 105.322 310.522 108.125 308.065 110.659C305.607 113.117 303.495 114.346 301.729 114.346C296.199 114.346 293.434 110.275 293.434 102.134C293.434 99.1392 293.857 95.2224 294.702 90.384H293.78C285.255 106.205 278.343 114.115 273.044 114.115C266.977 114.115 263.943 109.546 263.943 100.406C263.943 95.1072 265.326 89.3088 268.09 83.0112C271.93 74.4864 276.807 68.9184 282.721 66.3072C284.794 65.4624 286.868 65.04 288.942 65.04C291.092 65.04 292.782 65.6544 294.01 66.8832C295.239 68.112 295.854 69.4944 295.854 71.0304C295.854 71.7216 295.47 72.0672 294.702 72.0672C294.01 71.9904 293.665 71.6064 293.665 70.9152C293.665 70.224 293.281 69.6096 292.513 69.072C291.822 68.4576 290.785 68.1504 289.402 68.1504C284.564 68.1504 280.186 72.4896 276.27 81.168C272.583 89.232 270.74 96.8736 270.74 104.093C270.74 108.547 271.7 110.774 273.62 110.774C276.231 110.774 279.495 107.933 283.412 102.25C287.329 96.5664 290.746 90.4608 293.665 83.9328C296.66 77.4048 298.772 71.4528 300.001 66.0768C301.306 60.624 303.265 53.2128 305.876 43.8432C307.566 37.776 309.793 34.7424 312.558 34.7424C313.172 34.7424 313.633 34.9728 313.94 35.4336C314.247 35.8176 314.362 36.24 314.286 36.7008C314.209 37.0848 313.057 41.3088 310.83 49.3728ZM326.583 97.1808C326.583 106.474 329.886 111.12 336.49 111.12C338.948 111.12 341.521 110.045 344.209 107.894C346.974 105.667 349.47 103.018 351.697 99.9456C356.612 92.88 360.068 87.12 362.065 82.6656L363.562 79.44H366.673C365.367 82.512 363.447 86.3136 360.913 90.8448C358.378 95.2992 355.959 99.0624 353.655 102.134C351.351 105.206 348.625 108.01 345.476 110.544C342.327 113.002 339.332 114.23 336.49 114.23C325.124 114.23 319.441 107.856 319.441 95.1072C319.441 89.1936 321.169 83.28 324.625 77.3664C329.386 69.1488 335.262 65.04 342.25 65.04C347.166 65.04 349.623 67.728 349.623 73.104C349.623 77.0976 348.087 81.2448 345.015 85.5456C340.714 91.3824 335.684 94.3392 329.924 94.416C329.079 94.416 328.542 94.032 328.311 93.264L328.196 92.8032C332.19 92.8032 335.991 90.192 339.601 84.9696C343.287 79.6704 345.13 75.2544 345.13 71.7216C345.13 69.3408 344.209 68.1504 342.366 68.1504C338.295 68.1504 334.494 71.7216 330.961 78.864C328.042 84.9312 326.583 91.0368 326.583 97.1808ZM387.116 62.9664C390.418 62.9664 392.07 66.1536 392.07 72.528C392.07 73.68 391.993 74.8704 391.839 76.0992C393.145 76.4832 394.642 76.6752 396.332 76.6752C398.022 76.6752 399.558 75.9456 400.94 74.4864C402.322 73.0272 403.014 71.6832 403.014 70.4544C403.014 70.1472 403.206 69.9552 403.59 69.8784C403.974 69.7248 404.319 69.7248 404.626 69.8784C405.01 70.032 405.202 70.2624 405.202 70.5696C405.202 72.7968 404.242 74.9088 402.322 76.9056C400.479 78.9024 397.983 79.9008 394.834 79.9008C393.606 79.9008 392.492 79.7856 391.494 79.5552C389.497 91.8432 385.503 101.482 379.513 108.47C376.364 112.157 373.292 114 370.297 114C364.767 114 361.388 112.157 360.159 108.47C359.468 106.474 359.122 104.362 359.122 102.134C359.122 99.9072 359.43 97.2576 360.044 94.1856C361.042 89.1936 363.116 81.168 366.265 70.1088C366.726 68.496 367.455 67.6896 368.454 67.6896C369.836 67.6896 370.834 68.688 371.449 70.6848C371.756 71.5296 371.91 72.6048 371.91 73.9104C371.91 75.1392 371.679 76.6368 371.218 78.4032C368.3 89.3856 366.649 96.0288 366.265 98.3328C365.881 100.56 365.689 102.48 365.689 104.093C365.689 108.624 367.11 110.89 369.951 110.89C374.098 110.89 377.938 107.434 381.471 100.522C385.081 93.6096 387.538 86.2752 388.844 78.5184C386.54 77.2896 385.004 75.6768 384.236 73.68C383.545 71.6064 383.199 70.032 383.199 68.9568C383.199 67.8048 383.353 66.8064 383.66 65.9616C384.274 63.9648 385.426 62.9664 387.116 62.9664ZM453.995 81.168L417.477 81.3984C416.632 81.3984 416.21 81.0912 416.21 80.4768C416.21 79.248 417.438 78.4032 419.896 77.9424C420.51 77.8656 421.202 77.8272 421.97 77.8272L457.682 78.864C458.45 78.864 458.834 79.056 458.834 79.44C458.834 80.5152 457.221 81.0912 453.995 81.168ZM500.807 41.7696C503.572 34.5504 504.954 29.6352 504.954 27.024C504.954 24.4128 504.301 23.0304 502.996 22.8768C499.386 22.8768 495.623 28.6752 491.706 40.272C487.866 51.792 484.833 63.7728 482.605 76.2144C480.455 88.5792 479.38 97.3344 479.38 102.48C479.38 111.158 481.53 115.498 485.831 115.498C485.831 116.035 485.485 116.573 484.794 117.11C484.103 117.648 483.297 117.917 482.375 117.917C476.077 117.917 472.929 112.272 472.929 100.982C472.929 96.8352 473.697 90.4992 475.233 81.9744C476.769 73.3728 478.765 64.3872 481.223 55.0176C483.681 45.648 486.868 37.5072 490.785 30.5952C494.701 23.6064 498.695 20.112 502.765 20.112C505.991 20.112 507.604 22.1472 507.604 26.2176C507.604 29.2896 506.644 33.5904 504.724 39.12C501.037 49.872 495.738 60.624 488.826 71.376C486.983 74.2176 485.332 76.5216 483.873 78.288C483.489 78.7488 483.297 78.5952 483.297 77.8272C483.22 76.368 483.565 75.1008 484.333 74.0256C490.631 64.5792 496.122 53.8272 500.807 41.7696ZM506.085 114.115C500.018 114.115 496.984 109.546 496.984 100.406C496.984 95.1072 498.367 89.3088 501.131 83.0112C504.971 74.4864 509.848 68.9184 515.762 66.3072C517.835 65.4624 519.909 65.04 521.983 65.04C524.133 65.04 525.823 65.6544 527.051 66.8832C528.28 68.112 528.895 69.4944 528.895 71.0304C528.895 71.7216 528.511 72.0672 527.743 72.0672C527.051 71.9904 526.706 71.6064 526.706 70.9152C526.706 70.224 526.322 69.6096 525.554 69.072C524.863 68.4576 523.826 68.1504 522.443 68.1504C517.605 68.1504 513.227 72.4896 509.311 81.168C505.624 89.232 503.781 96.8736 503.781 104.093C503.781 108.547 504.741 110.774 506.661 110.774C508.658 110.774 511.039 109.123 513.803 105.821C516.645 102.442 519.256 98.5248 521.637 94.0704C526.783 84.7008 529.816 78.672 530.738 75.984C531.659 73.296 532.658 71.952 533.733 71.952C535.653 71.952 536.613 73.5648 536.613 76.7904C536.613 77.7888 536.498 78.9408 536.267 80.2464C533.733 92.5344 532.351 99.6384 532.12 101.558C531.967 103.478 531.89 104.861 531.89 105.706C531.89 109.392 532.773 111.235 534.539 111.235C536.536 111.235 539.339 108.586 542.949 103.286C546.559 97.9872 549.669 92.688 552.28 87.3888L556.197 79.44H559.307C558.847 80.3616 558.232 81.6288 557.464 83.2416C556.773 84.7776 555.352 87.5808 553.202 91.6512C551.051 95.6448 548.978 99.1776 546.981 102.25C545.061 105.322 542.872 108.125 540.415 110.659C538.034 113.117 535.96 114.346 534.194 114.346C528.511 114.346 525.669 110.198 525.669 101.904C525.669 99.1392 525.976 95.9136 526.591 92.2272H525.784C517.951 106.819 511.384 114.115 506.085 114.115ZM578.595 84.048C581.59 79.6704 583.088 75.9072 583.088 72.7584C583.088 69.6096 582.051 68.0352 579.977 68.0352C577.52 68.0352 574.832 70.1088 571.913 74.256C568.995 78.3264 566.384 83.2032 564.08 88.8864C559.625 99.8688 556.899 107.472 555.9 111.696C555.44 113.232 554.787 114 553.942 114C552.56 114 551.523 113.155 550.832 111.466C550.448 110.544 550.256 109.584 550.256 108.586C550.256 107.51 550.563 105.59 551.177 102.826C551.792 99.984 552.828 95.0304 554.288 87.9648C555.67 80.8992 556.86 75.0624 557.859 70.4544C558.857 65.7696 560.009 60.5472 561.315 54.7872C562.62 48.9504 563.849 44.2272 565.001 40.6176C566.23 36.9312 567.612 33.3984 569.148 30.0192C572.067 23.4144 575.408 20.112 579.171 20.112C582.627 20.112 584.355 22.416 584.355 27.024C584.355 28.176 584.24 29.52 584.009 31.056C582.857 38.352 579.824 45.8784 574.908 53.6352C571.376 59.2416 568.035 62.7744 564.886 64.2336C564.348 67.0752 563.619 71.1456 562.697 76.4448C561.776 81.744 561.123 85.4304 560.739 87.504H561.315C567.843 72.6816 574.486 65.2704 581.244 65.2704C586.313 65.2704 588.848 68.0736 588.848 73.68C588.848 77.3664 587.273 81.36 584.124 85.6608C581.052 89.9616 576.905 92.7264 571.683 93.9552C574.294 94.9536 576.483 96.72 578.249 99.2544C580.092 101.712 581.36 104.093 582.051 106.397C583.817 112.464 585.584 115.498 587.35 115.498C587.35 116.035 587.004 116.573 586.313 117.11C585.622 117.648 584.816 117.917 583.894 117.917C581.283 117.917 579.209 116.688 577.673 114.23C576.214 111.773 575.254 109.085 574.793 106.166C574.332 103.248 573.488 100.56 572.259 98.1024C571.03 95.6448 569.34 94.416 567.19 94.416H566.96C566.268 94.416 565.769 93.8784 565.462 92.8032C570.224 92.8032 574.601 89.8848 578.595 84.048ZM581.705 27.2544C581.705 24.7968 581.014 23.2992 579.632 22.7616C575.1 22.7616 570.416 35.4336 565.577 60.7776C568.649 58.6272 571.836 54.3264 575.139 47.8752C579.516 39.1968 581.705 32.3232 581.705 27.2544ZM614.06 52.4832H614.291C614.982 52.56 615.519 52.8672 615.903 53.4048C616.287 53.9424 616.479 54.5184 616.479 55.1328C616.479 55.6704 615.942 56.8608 614.867 58.704C613.868 60.5472 613.369 62.0448 613.369 63.1968C613.369 64.272 613.523 65.3088 613.83 66.3072C614.137 67.2288 615.097 69.5328 616.71 73.2192C620.243 81.2832 622.009 88.5024 622.009 94.8768C622.009 101.174 620.281 106.397 616.825 110.544C613.446 114.691 609.375 116.765 604.614 116.765C599.929 116.765 597.587 113.923 597.587 108.24C597.587 102.48 599.622 96.336 603.692 89.808C606.073 86.0448 608.646 83.2032 611.411 81.2832C612.179 80.7456 612.678 80.8608 612.908 81.6288C613.215 82.3968 613.062 83.0112 612.447 83.472C607.993 86.6976 604.537 91.8048 602.079 98.7936C599.852 105.091 599.622 109.469 601.388 111.926C602.003 112.848 602.886 113.309 604.038 113.309C607.417 113.309 610.067 111.043 611.987 106.512C613.907 101.981 614.867 96.336 614.867 89.5776C614.867 83.7408 614.175 78.3264 612.793 73.3344C611.411 68.3424 610.643 65.4624 610.489 64.6944C608.185 69.072 605.689 73.9872 603.001 79.44H599.891C604.268 70.7616 607.647 64.2336 610.028 59.856C610.335 54.9408 611.679 52.4832 614.06 52.4832ZM659.608 20.112C663.064 20.112 664.792 22.416 664.792 27.024C664.792 28.176 664.677 29.52 664.447 31.056C663.295 38.352 660.261 45.8784 655.346 53.6352C651.813 59.2416 648.472 62.7744 645.324 64.2336C643.788 72.528 642.444 80.0544 641.292 86.8128H642.098C648.549 72.4512 655.077 65.2704 661.682 65.2704C664.063 65.2704 665.906 66 667.212 67.4592C668.594 68.9184 669.285 70.9152 669.285 73.4496C669.285 75.984 668.287 81.552 666.29 90.1536C664.293 98.6784 663.295 104.63 663.295 108.01C663.295 113.002 664.216 115.498 666.06 115.498C666.06 116.035 665.714 116.573 665.023 117.11C664.332 117.648 663.525 117.917 662.604 117.917C658.149 117.917 655.922 114.422 655.922 107.434C655.922 103.133 657.036 96.7584 659.263 88.3104C661.567 79.7856 662.719 74.2944 662.719 71.8368C662.719 69.3792 661.759 68.1504 659.839 68.1504C657.612 68.1504 655.154 70.032 652.466 73.7952C649.778 77.5584 647.282 82.3584 644.978 88.1952C641.138 97.5648 638.258 105.398 636.338 111.696C635.877 113.232 635.224 114 634.38 114C632.997 114 631.96 113.155 631.269 111.466C630.885 110.544 630.693 109.584 630.693 108.586C630.693 107.51 631 105.59 631.615 102.826C632.229 99.984 633.266 95.0304 634.725 87.9648C636.108 80.8992 637.298 75.0624 638.296 70.4544C639.295 65.7696 640.447 60.5472 641.752 54.7872C643.058 48.9504 644.287 44.2272 645.439 40.6176C646.668 36.9312 648.05 33.3984 649.586 30.0192C652.504 23.4144 655.845 20.112 659.608 20.112ZM662.143 27.2544C662.143 24.7968 661.452 23.2992 660.069 22.7616C655.538 22.7616 650.853 35.4336 646.015 60.7776C649.087 58.6272 652.274 54.3264 655.576 47.8752C659.954 39.1968 662.143 32.3232 662.143 27.2544ZM681.975 114C679.825 114 678.75 112.349 678.75 109.046C678.75 107.28 680.9 94.416 685.201 70.4544C685.431 68.8416 686.122 68.0352 687.274 68.0352C688.657 68.0352 689.694 69.0336 690.385 71.0304C690.769 72.1056 690.961 73.296 690.961 74.6016C690.961 75.8304 690.807 77.1744 690.5 78.6336L688.772 87.3888H689.463C696.222 72.1824 702.75 64.5792 709.047 64.5792C711.198 64.5792 712.887 65.3472 714.116 66.8832C715.422 68.4192 716.074 70.2624 716.074 72.4128C716.074 76.4064 715.46 81.3984 714.231 87.3888H714.692C721.22 73.1808 727.633 66.0768 733.93 66.0768C736.004 66.0768 737.694 66.8448 738.999 68.3808C740.305 69.9168 740.958 71.952 740.958 74.4864C740.958 77.0208 739.959 82.3968 737.962 90.6144C736.042 98.832 735.082 104.63 735.082 108.01C735.082 113.002 736.004 115.498 737.847 115.498C737.847 116.035 737.502 116.573 736.81 117.11C736.119 117.648 735.313 117.917 734.391 117.917C729.937 117.917 727.71 114.422 727.71 107.434C727.71 103.056 728.823 96.7584 731.05 88.5408C733.278 80.2464 734.391 74.9472 734.391 72.6432C734.391 70.2624 733.623 69.072 732.087 69.072C729.246 69.072 725.905 72.528 722.065 79.44C718.302 86.2752 715.268 92.8416 712.964 99.1392C710.737 105.437 709.431 109.507 709.047 111.35C708.663 113.117 707.972 114 706.974 114C704.823 114 703.748 112.349 703.748 109.046C703.748 107.818 704.401 103.478 705.706 96.0288C708.241 82.3584 709.508 74.2176 709.508 71.6064C709.508 68.9184 708.74 67.5744 707.204 67.5744C705.13 67.5744 702.711 69.7248 699.946 74.0256C697.182 78.2496 694.686 83.1648 692.458 88.7712C687.62 100.598 684.778 108.24 683.934 111.696C683.626 113.232 682.974 114 681.975 114ZM767.045 44.9952C768.812 44.9952 769.695 46.1856 769.695 48.5664C769.695 50.9472 768.543 52.8672 766.239 54.3264C765.087 55.0944 764.088 55.4784 763.244 55.4784C762.015 55.4784 761.285 55.0944 761.055 54.3264L760.94 53.9808C761.631 53.9808 762.13 53.2512 762.437 51.792C762.744 50.256 763.205 48.7584 763.82 47.2992C764.511 45.7632 765.586 44.9952 767.045 44.9952ZM759.672 111.235C761.669 111.235 764.472 108.586 768.082 103.286C771.692 97.9872 774.802 92.688 777.413 87.3888L781.33 79.44H784.44C783.98 80.3616 783.365 81.6288 782.597 83.2416C781.906 84.7776 780.485 87.5808 778.335 91.6512C776.184 95.6448 774.111 99.1776 772.114 102.25C770.194 105.322 768.005 108.125 765.548 110.659C763.167 113.117 761.093 114.346 759.327 114.346C753.644 114.346 750.802 110.659 750.802 103.286C750.802 97.7568 752.376 88.7712 755.525 76.3296C755.832 75.024 756.063 74.0256 756.216 73.3344C756.447 72.6432 756.677 71.76 756.908 70.6848C757.138 69.5328 757.368 68.496 757.599 67.5744C757.983 65.9616 758.674 65.1552 759.672 65.1552C761.055 65.1552 762.053 66.1536 762.668 68.1504C762.975 69.072 763.128 70.1856 763.128 71.4912C763.128 72.7968 762.975 74.1792 762.668 75.6384C762.36 77.0208 761.861 79.0944 761.17 81.8592C760.479 84.624 759.941 86.8896 759.557 88.656C759.173 90.4224 758.751 92.5728 758.29 95.1072C757.445 99.3312 757.023 103.094 757.023 106.397C757.023 109.622 757.906 111.235 759.672 111.235ZM784.612 125.75C783.844 125.75 783.46 125.174 783.46 124.022C783.46 122.87 784.19 120.758 785.649 117.686C787.108 114.614 790.372 107.549 795.441 96.4896C800.587 85.3536 806.001 73.5648 811.684 61.1232C817.367 48.6048 820.631 41.424 821.476 39.5808C822.398 37.968 823.435 37.1616 824.587 37.1616C825.969 37.1616 826.66 38.1216 826.66 40.0416C826.66 42.1152 825.854 44.688 824.241 47.76C824.011 48.2976 818.327 59.664 807.191 81.8592C796.055 103.978 789.105 118.032 786.34 124.022C785.803 125.174 785.227 125.75 784.612 125.75ZM850.255 109.738C850.255 106.742 852.943 103.018 858.319 98.5632C863.695 94.1088 868.917 91.6512 873.986 91.1904C869.608 89.1168 865.576 85.776 861.89 81.168C858.28 76.4832 856.475 72.5664 856.475 69.4176C856.475 68.4192 856.629 67.6128 856.936 66.9984C857.243 66.3072 857.704 65.8464 858.319 65.616C858.319 70.4544 861.237 75.5616 867.074 80.9376C872.987 86.3136 879.477 89.0016 886.543 89.0016C886.312 89.9232 885.583 90.8064 884.354 91.6512C883.202 92.4192 881.896 92.8032 880.437 92.8032C873.371 92.8032 866.882 95.184 860.968 99.9456C855.131 104.707 852.213 109.2 852.213 113.424C850.907 113.194 850.255 111.965 850.255 109.738Z" fill="url(#paint0_linear)"/>
</g>
<defs>
<filter id="filter0_d" x="-4" y="0" width="1077" height="182" filterUnits="userSpaceOnUse" color-interpolation-filters="sRGB">
<feFlood flood-opacity="0" result="BackgroundImageFix"/>
<feColorMatrix in="SourceAlpha" type="matrix" values="0 0 0 0 0 0 0 0 0 0 0 0 0 0 0 0 0 0 127 0"/>
<feOffset dy="4"/>
<feGaussianBlur stdDeviation="2"/>
<feColorMatrix type="matrix" values="0 0 0 0 0 0 0 0 0 0 0 0 0 0 0 0 0 0 0.25 0"/>
<feBlend mode="normal" in2="BackgroundImageFix" result="effect1_dropShadow"/>
<feBlend mode="normal" in="SourceGraphic" in2="effect1_dropShadow" result="shape"/>
</filter>
<linearGradient id="paint0_linear" x1="557" y1="-7" x2="557" y2="162" gradientUnits="userSpaceOnUse">
<stop offset="0.286458" stop-color="#1B1E1D"/>
<stop offset="1" stop-color="#06FFD4" stop-opacity="0.46"/>
</linearGradient>
<clipPath id="clip0">
<rect width="1069" height="174" fill="white"/>
</clipPath>
</defs>
</svg>
